<?xml version="1.0" encoding="utf-8"?>
<!-- Svg Vector Icons : http://www.onlinewebfonts.com/icon -->
<!DOCTYPE svg PUBLIC "-//W3C//DTD SVG 1.1//EN" "http://www.w3.org/Graphics/SVG/1.1/DTD/svg11.dtd">
<svg version="1.1" xmlns="http://www.w3.org/2000/svg" xmlns:xlink="http://www.w3.org/1999/xlink" x="0px" y="0px" viewBox="0 0 1000 1000" enable-background="new 0 0 1000 1000" xml:space="preserve">
<metadata> Svg Vector Icons : http://www.onlinewebfonts.com/icon </metadata>
<g><g transform="translate(0.000000,511.000000) scale(0.100000,-0.100000)"><path d="M8081.8,4943.9c-53.8-53.8-65.3-78.8-65.3-148c0-78.8,7.7-90.3,249.8-332.4l249.8-251.7l-514.9-514.9l-513-513l294-292.1l292.1-294l513,513l515,515l251.7-249.8c242.1-242.1,253.6-249.8,332.4-249.8c69.2,0,94.1,11.5,147.9,65.3c73,73,84.6,149.9,38.4,238.3c-30.7,55.7-1469.9,1496.8-1548.7,1548.7C8245.1,5030.3,8156.7,5018.8,8081.8,4943.9z"/><path d="M6348.6,3798.7c-67.3-42.3-99.9-103.8-99.9-196c0-48,30.7-90.3,176.8-240.2l176.8-180.6L4463.7,1043.3L2325.1-1097.2l7.7-294c7.7-251.7,17.3-319,59.6-449.6l51.9-153.7L2056-2382.7l-388.1-390l74.9-76.9l74.9-76.9l-858.9-860.8C374.8-4371.4,100-4659.6,100-4686.5c0-48,57.6-103.8,107.6-103.8c23.1,0,361.2,324.7,895.4,858.9l860.8,860.8l71.1-73l73-71.1l386.2,386.2l388.1,386.2l121.1-38.4c186.4-61.5,328.6-80.7,572.6-80.7h222.9L5935.5-424.7l2138.6,2138.6l169.1-169.1c190.2-188.3,253.6-217.1,367-157.6c74.9,36.5,124.9,142.2,107.6,221c-9.6,40.4-320.9,363.2-1087.5,1127.9C7038.4,3326,6540.8,3814,6521.5,3821.7C6463.9,3844.8,6413.9,3837.1,6348.6,3798.7z M6713.7,1823.4c267.1-267.1,303.6-311.3,303.6-365.1c0-42.3-17.3-78.8-48-109.5c-30.7-30.7-67.2-48-109.5-48c-53.8,0-98,36.5-365.1,303.6c-267.1,267.1-303.6,311.3-303.6,365.1c0,42.3,17.3,78.8,48,109.5c30.7,30.7,67.2,48,109.5,48C6402.4,2127,6446.6,2090.5,6713.7,1823.4z M5829.8,939.5c267.1-267.1,303.6-311.3,303.6-365.1c0-42.3-17.3-78.8-48-109.5c-30.7-30.7-67.3-48-109.5-48c-53.8,0-98,36.5-365.1,303.6c-267.1,267.1-303.6,311.3-303.6,365.1c0,42.3,17.3,78.8,48,109.5c30.7,30.7,67.2,48,109.5,48C5518.5,1243.1,5562.7,1206.6,5829.8,939.5z M4945.9,55.7c267.1-267.1,303.6-311.3,303.6-365.1c0-84.6-73-157.6-157.6-157.6c-53.8,0-98,36.5-365.1,303.6c-267.1,267.1-303.6,311.3-303.6,365.1c0,84.6,73,157.6,157.6,157.6C4634.7,359.2,4678.8,322.7,4945.9,55.7z M4052.5-816.7c163.3-161.4,299.7-313.2,307.4-336.2c28.8-123-88.4-226.7-199.8-180.6c-30.7,11.5-178.7,146-328.6,295.9c-226.7,228.7-276.7,286.3-284.4,344c-9.6,57.6-3.8,78.8,36.5,119.1c32.7,32.7,71.1,50,111.5,50C3748.9-524.6,3795-561.1,4052.5-816.7z"/></g></g>
</svg>