<svg id="b2923313-4697-491a-8d64-9a9982690070" data-name="Layer 1" xmlns="http://www.w3.org/2000/svg" width="55.47895mm" height="54.00842mm" viewBox="0 0 157.26316 153.09474">
  <title>virus</title>
  <path d="M155.21415,56.60189a7.4363,7.4363,0,0,0-14.13856,3.0653c-2.34056.76292-5.06344,1.53713-8.00669,2.18307a53.62793,53.62793,0,0,0-7.39683-15.61272,44.72954,44.72954,0,0,1,5.91129-3.26374,3.84356,3.84356,0,1,0-.98383-2.30143,40.47241,40.47241,0,0,1-7.31655,2.36484,54.221,54.221,0,0,0-10.7687-10.148,100.82,100.82,0,0,1,5.16851-10.27014,7.61963,7.61963,0,0,0,1.84412.23177,7.90594,7.90594,0,0,0,7.08573-4.49832A7.82258,7.82258,0,0,0,122.9935,7.91192a7.62254,7.62254,0,0,0-3.30593-.751,7.89975,7.89975,0,0,0-6.68191,12.04464,94.37555,94.37555,0,0,1-7.18775,9.61376,53.44393,53.44393,0,0,0-13.611-4.80382,41.44691,41.44691,0,0,1,.6779-9.27281,3.8463,3.8463,0,1,0-2.44881-.51407,38.47977,38.47977,0,0,1-3.02468,9.03387,53.65724,53.65724,0,0,0-17.412.8334,87.99418,87.99418,0,0,1-3.651-10.4766A7.43491,7.43491,0,0,0,59.61029.48364a7.437,7.437,0,0,0,2.07737,14.31822A81.58094,81.58094,0,0,1,63.6801,25.85908a53.721,53.721,0,0,0-14.04994,7.32268,43.304,43.304,0,0,1-5.0701-5.93967,3.84273,3.84273,0,1,0-2.07483,1.399,40.10787,40.10787,0,0,1,3.85861,7.13057,54.248,54.248,0,0,0-9.37535,10.34683,98.92606,98.92606,0,0,1-12.47526-6.87865,7.71416,7.71416,0,0,0-.20761-3.6722A7.85556,7.85556,0,0,0,20.474,30.92147a7.93861,7.93861,0,0,0-3.7644-.95756A7.74878,7.74878,0,0,0,13.094,44.583a7.93634,7.93634,0,0,0,3.76335.95756,7.79817,7.79817,0,0,0,4.51593-1.44842,90.69808,90.69808,0,0,1,11.18288,9.63033,53.5358,53.5358,0,0,0-4.108,12.2955,45.68758,45.68758,0,0,1-5.88144-.58,3.84647,3.84647,0,1,0-.47123,2.458,42.4546,42.4546,0,0,1,5.785,1.52732,53.55914,53.55914,0,0,0,.06646,15.317,85.33143,85.33143,0,0,1-12.70808,4.06981A7.43446,7.43446,0,0,0,1.85,95.02794a7.43726,7.43726,0,0,0,14.38879-1.515,79.41047,79.41047,0,0,1,13.26235-1.66584,53.8044,53.8044,0,0,0,12.1363,21.50607,52.83388,52.83388,0,0,1-5.15206,7.196,4.61187,4.61187,0,1,0,2.25048,2.00162,49.40373,49.40373,0,0,1,6.226-5.88344,53.81268,53.81268,0,0,0,22.9586,12.39793c-.07722,2.61464-.26985,5.09382-.52388,7.38755a8.453,8.453,0,0,0-6.60564,7.02814,8.3051,8.3051,0,1,0,13.22573-5.51263,52.43842,52.43842,0,0,1,2.98144-7.41751c1.41392.11077,2.83765.1844,4.27942.1844a53.773,53.773,0,0,0,19.48736-3.64583,41.93148,41.93148,0,0,1,5.47138,6.91832,3.8435,3.8435,0,1,0,2.14394-1.29239,40.113,40.113,0,0,1-3.52336-7.40253,54.12242,54.12242,0,0,0,17.95339-14.11535c2.55588.768,4.94908,1.604,7.132,2.43181a7.70379,7.70379,0,0,0,.96947,3.82359,7.86271,7.86271,0,0,0,4.69876,3.7489,7.95466,7.95466,0,0,0,2.23961.32354,7.75429,7.75429,0,0,0,2.12525-15.22545,7.84522,7.84522,0,0,0-7.81605,2.01618c-1.705-.7624-3.5068-1.61489-5.38183-2.59154a53.62207,53.62207,0,0,0,8.41369-28.90385,54.1711,54.1711,0,0,0-.79838-9.20182c2.89378-1.37119,5.70009-2.49248,8.18592-3.38368a7.43437,7.43437,0,0,0,12.6355-7.63324Z" fill="#254d00"/>
  <path d="M101.63017,86.96966a2.46728,2.46728,0,1,1,3.46659.39718A2.46532,2.46532,0,0,1,101.63017,86.96966Z" fill="#fff"/>
  <path d="M73.24608,82.20139a2.46729,2.46729,0,1,1-.39771,3.4666A2.46668,2.46668,0,0,1,73.24608,82.20139Z" fill="#fff"/>
  <path d="M86.37444,90.901a3.5117,3.5117,0,1,1,4.9341.56607A3.5105,3.5105,0,0,1,86.37444,90.901Z" fill="#fff"/>
  <path d="M92.57467,68.44872a3.51219,3.51219,0,1,1,.56565-4.93421A3.5125,3.5125,0,0,1,92.57467,68.44872Z" fill="#fff"/>
  <path d="M85.61521,54.70576a6.77871,6.77871,0,1,1,9.52367,1.09153A6.77983,6.77983,0,0,1,85.61521,54.70576Z" fill="#fff"/>
  <path d="M102.1474,61.51489a1.77189,1.77189,0,1,1-.28642,2.48953A1.7716,1.7716,0,0,1,102.1474,61.51489Z" fill="#fff"/>
  <path d="M118.10623,52.58409a2.15105,2.15105,0,1,1,2.151-2.15163A2.1502,2.1502,0,0,1,118.10623,52.58409Z" fill="#fff"/>
  <path d="M121.8335,63.16427a2.1515,2.1515,0,1,1,3.02364.34718A2.15227,2.15227,0,0,1,121.8335,63.16427Z" fill="#fff"/>
  <path d="M110.82987,38.34563a1.7717,1.7717,0,1,1-1.772,1.772A1.76955,1.76955,0,0,1,110.82987,38.34563Z" fill="#fff"/>
  <path d="M93.99639,31.44893a2.15158,2.15158,0,1,1-2.15215-2.15152A2.15165,2.15165,0,0,1,93.99639,31.44893Z" fill="#fff"/>
  <path d="M86.38319,37.59874a1.77144,1.77144,0,1,1-1.77143,1.77249A1.77181,1.77181,0,0,1,86.38319,37.59874Z" fill="#fff"/>
  <path d="M94.6186,122.41892a6.779,6.779,0,1,1,1.09205-9.52473A6.77717,6.77717,0,0,1,94.6186,122.41892Z" fill="#fff"/>
  <path d="M64.95087,31.25936a2.46811,2.46811,0,1,1,2.46779,2.46737A2.46791,2.46791,0,0,1,64.95087,31.25936Z" fill="#fff"/>
  <path d="M68.46335,42.27017a3.512,3.512,0,1,1,3.512,3.512A3.51243,3.51243,0,0,1,68.46335,42.27017Z" fill="#fff"/>
  <path d="M80.23286,71.25082a3.512,3.512,0,1,1-3.512-3.51143A3.5128,3.5128,0,0,1,80.23286,71.25082Z" fill="#fff"/>
  <path d="M77.67076,29.73984a2.46811,2.46811,0,1,1-2.46832,2.46885A2.46846,2.46846,0,0,1,77.67076,29.73984Z" fill="#fff"/>
  <path d="M43.79566,93.20808A3.51146,3.51146,0,1,1,43.23,98.14219,3.51115,3.51115,0,0,1,43.79566,93.20808Z" fill="#fff"/>
  <path d="M49.30049,83.50254a2.46736,2.46736,0,1,1-.39813,3.46712A2.4673,2.4673,0,0,1,49.30049,83.50254Z" fill="#fff"/>
  <path d="M53.08188,78.8022A2.46795,2.46795,0,1,1,53.48,75.33508,2.46723,2.46723,0,0,1,53.08188,78.8022Z" fill="#fff"/>
  <path d="M42.80308,53.47054a1.7717,1.7717,0,1,1-1.77143-1.77143A1.77163,1.77163,0,0,1,42.80308,53.47054Z" fill="#fff"/>
  <path d="M36.30093,78.8022a2.46794,2.46794,0,1,1,.39866-3.46712A2.468,2.468,0,0,1,36.30093,78.8022Z" fill="#fff"/>
  <path d="M58.63005,69.30532a2.46753,2.46753,0,1,1-.3977,3.4666A2.46682,2.46682,0,0,1,58.63005,69.30532Z" fill="#fff"/>
  <path d="M59.21312,84.84177a3.51178,3.51178,0,1,1,4.93368.56555A3.51,3.51,0,0,1,59.21312,84.84177Z" fill="#fff"/>
  <path d="M51.52733,113.06161a6.77916,6.77916,0,1,1,9.52368,1.09206A6.779,6.779,0,0,1,51.52733,113.06161Z" fill="#fff"/>
  <path d="M76.43449,111.59821a2.46782,2.46782,0,1,1,2.89746-1.94507A2.46678,2.46678,0,0,1,76.43449,111.59821Z" fill="#fff"/>
  <path d="M115.24221,114.56161a2.15182,2.15182,0,1,1-1.69569-2.52613A2.15165,2.15165,0,0,1,115.24221,114.56161Z" fill="#fff"/>
  <path d="M108.42233,108.57711a1.7718,1.7718,0,1,1-1.39589-2.08042A1.77063,1.77063,0,0,1,108.42233,108.57711Z" fill="#fff"/>
  <path d="M119.69063,104.27712a2.15114,2.15114,0,1,1,.24422-3.03292A2.15338,2.15338,0,0,1,119.69063,104.27712Z" fill="#fff"/>
  <path d="M121.68413,77.05809a2.46721,2.46721,0,1,1-3.46766-.39813A2.46727,2.46727,0,0,1,121.68413,77.05809Z" fill="#fff"/>
</svg>
